<svg width="96" height="96" xmlns="http://www.w3.org/2000/svg" xmlns:xlink="http://www.w3.org/1999/xlink" overflow="hidden"><defs><clipPath id="clip0"><rect x="100" y="792" width="96" height="96"/></clipPath></defs><g clip-path="url(#clip0)" transform="translate(-100 -792)"><path d="M190 817 177 817 177 816C177 814.895 176.105 814 175 814 173.895 814 173 814.895 173 816L173 817 160 817C158.895 817 158 817.895 158 819 158 820.105 158.895 821 160 821L173 821 173 824 172 824C171.448 824 171 824.448 171 825L171 827.193 166.631 826.493C154.29 824.506 141.71 824.506 129.368 826.493L125 827.193 125 825C125 824.448 124.552 824 124 824L123 824 123 821 136 821C137.105 821 138 820.105 138 819 138 817.895 137.105 817 136 817L123 817 123 816C123 814.895 122.105 814 121 814 119.895 814 119 814.895 119 816L119 817 106 817C104.895 817 104 817.895 104 819 104 820.105 104.895 821 106 821L119 821 119 824 118 824C117.448 824 117 824.448 117 825L117 828.48 114.812 828.833C113.004 829.107 111.76 830.795 112.034 832.603 112.257 834.071 113.43 835.212 114.905 835.393L120.966 836.193C123.91 836.583 126.809 837.263 129.619 838.224L130.855 838.647C132.007 839.041 133.14 839.481 134.255 839.968L128 855.615 128 866 132 866 132 856.385 137.861 841.732 138.261 841.943C139.563 842.637 141.016 843 142.492 843L145 843 145 848 142 848C140.895 848 140 848.895 140 850L140 858C140 859.105 140.895 860 142 860L154 860C155.105 860 156 859.105 156 858L156 850C156 848.895 155.105 848 154 848L151 848 151 843 153.507 843C154.984 843 156.439 842.638 157.742 841.943L158.142 841.731 164 856.385 164 866 168 866 168 855.615 161.742 839.97C162.857 839.485 163.991 839.045 165.142 838.65L166.378 838.227C169.189 837.268 172.089 836.589 175.034 836.2L181.094 835.4C182.909 835.177 184.2 833.526 183.977 831.711 183.797 830.236 182.656 829.063 181.187 828.84L179 828.48 179 825C179 824.448 178.552 824 178 824L177 824 177 821 190 821C191.105 821 192 820.105 192 819 192 817.895 191.105 817 190 817ZM148 856.5C146.619 856.5 145.5 855.381 145.5 854 145.5 852.619 146.619 851.5 148 851.5 149.381 851.5 150.5 852.619 150.5 854 150.5 855.381 149.381 856.5 148 856.5Z" fill="#14237E"/></g></svg>